<svg width="24" height="24" viewBox="0 0 24 24" fill="none" xmlns="http://www.w3.org/2000/svg">
<path d="M3 6.125C3 5.2962 3.32924 4.50134 3.91529 3.91529C4.50134 3.32924 5.2962 3 6.125 3H17.875C18.7038 3 19.4987 3.32924 20.0847 3.91529C20.6708 4.50134 21 5.2962 21 6.125V17.875C21 18.7038 20.6708 19.4987 20.0847 20.0847C19.4987 20.6708 18.7038 21 17.875 21H6.125C5.2962 21 4.50134 20.6708 3.91529 20.0847C3.32924 19.4987 3 18.7038 3 17.875V6.125ZM6.125 4.25C5.62772 4.25 5.15081 4.44754 4.79917 4.79917C4.44754 5.15081 4.25 5.62772 4.25 6.125V17.875C4.25 18.3723 4.44754 18.8492 4.79917 19.2008C5.15081 19.5525 5.62772 19.75 6.125 19.75H17.875C18.3723 19.75 18.8492 19.5525 19.2008 19.2008C19.5525 18.8492 19.75 18.3723 19.75 17.875V6.125C19.75 5.62772 19.5525 5.15081 19.2008 4.79917C18.8492 4.44754 18.3723 4.25 17.875 4.25H6.125ZM10.442 7.683C10.5001 7.74104 10.5461 7.80995 10.5775 7.88578C10.6089 7.96162 10.6251 8.04291 10.6251 8.125C10.6251 8.20709 10.6089 8.28838 10.5775 8.36421C10.5461 8.44005 10.5001 8.50896 10.442 8.567L7.009 12L10.442 15.433C10.5 15.491 10.5461 15.56 10.5775 15.6358C10.6089 15.7116 10.6251 15.7929 10.6251 15.875C10.6251 15.9571 10.6089 16.0384 10.5775 16.1142C10.5461 16.19 10.5 16.259 10.442 16.317C10.384 16.375 10.315 16.4211 10.2392 16.4525C10.1634 16.4839 10.0821 16.5001 10 16.5001C9.91791 16.5001 9.83663 16.4839 9.76079 16.4525C9.68495 16.4211 9.61604 16.375 9.558 16.317L5.683 12.442C5.62495 12.384 5.57889 12.3151 5.54747 12.2392C5.51605 12.1634 5.49988 12.0821 5.49988 12C5.49988 11.9179 5.51605 11.8366 5.54747 11.7608C5.57889 11.6849 5.62495 11.616 5.683 11.558L9.558 7.683C9.61604 7.62495 9.68495 7.57889 9.76079 7.54747C9.83662 7.51605 9.91791 7.49988 10 7.49988C10.0821 7.49988 10.1634 7.51605 10.2392 7.54747C10.3151 7.57889 10.384 7.62495 10.442 7.683ZM14.442 7.683C14.3248 7.56577 14.1658 7.49992 14 7.49992C13.8342 7.49992 13.6752 7.56577 13.558 7.683C13.4408 7.80023 13.3749 7.95922 13.3749 8.125C13.3749 8.29078 13.4408 8.44977 13.558 8.567L16.991 12L13.558 15.433C13.4408 15.5502 13.3749 15.7092 13.3749 15.875C13.3749 16.0408 13.4408 16.1998 13.558 16.317C13.6752 16.4342 13.8342 16.5001 14 16.5001C14.1658 16.5001 14.3248 16.4342 14.442 16.317L18.317 12.442C18.3751 12.384 18.4211 12.3151 18.4525 12.2392C18.4839 12.1634 18.5001 12.0821 18.5001 12C18.5001 11.9179 18.4839 11.8366 18.4525 11.7608C18.4211 11.6849 18.3751 11.616 18.317 11.558L14.442 7.683Z" fill="black"/>
</svg>
