<svg width="24" height="24" viewBox="0 0 24 24" fill="none" xmlns="http://www.w3.org/2000/svg">
<path d="M12.4226 16.8672C11.316 15.981 9.52163 15.981 8.41501 16.8672C7.30951 17.7537 7.30951 19.1903 8.41501 20.0768C9.52126 20.9633 11.3156 20.9633 12.4226 20.0768C13.5285 19.1903 13.5285 17.7537 12.4226 16.8672ZM8.17013 15.5888C9.02776 14.5234 8.73751 13.1775 7.52251 12.5835C6.30751 11.9895 4.62751 12.372 3.76988 13.4374C2.91338 14.5028 3.20288 15.8487 4.41751 16.4427C5.63326 17.037 7.31326 16.6545 8.17013 15.5888ZM7.00651 10.5068C7.82738 9.58953 7.62901 8.36441 6.56288 7.77041C5.49713 7.17603 3.96826 7.43778 3.14701 8.35503C2.32576 9.27228 2.52451 10.497 3.59026 11.091C4.65601 11.685 6.18563 11.4237 7.00651 10.5068ZM7.76288 7.24053C8.78213 7.83378 10.2638 7.60803 11.0715 6.73766C11.8796 5.86691 11.709 4.68078 10.6901 4.08791C9.67126 3.49466 8.18963 3.72003 7.38188 4.59041C6.57338 5.46116 6.74401 6.64728 7.76288 7.24053ZM16.3676 5.72666C17.2751 5.26278 17.376 4.35153 16.5926 3.69041C15.81 3.02928 14.4379 2.86916 13.53 3.33266C12.6218 3.79616 12.5213 4.70778 13.3046 5.36891C14.088 6.03003 15.4601 6.19016 16.3676 5.72666Z" fill="black"/>
<path d="M19.678 12.4496C18.8665 12.2111 18.1664 12.0049 17.974 11.5275C17.8626 11.2507 17.9061 10.8442 18.0951 10.3196C20.1074 8.43712 23.1179 5.40375 23.0331 4.17113C22.9994 3.67838 22.2141 2.97263 21.6993 2.97263L21.6588 2.97413C21.1015 3.01238 20.2499 3.74963 19.3401 4.74788C19.264 4.51884 19.1659 4.29769 19.0473 4.0875C18.0929 2.44312 15.9948 1.5 13.2914 1.5C11.1895 1.5 8.84915 2.07938 6.52452 3.1755C3.54065 4.5825 1.31202 7.5165 0.847021 10.6508C0.501271 12.978 0.914521 16.4978 4.84377 20.0539C6.58602 21.6315 9.32952 22.5 12.5676 22.5H12.5688C15.1683 22.5 17.8019 21.9214 19.7954 20.9138C22.0233 19.7869 23.2499 18.2284 23.2499 16.5248C23.2499 13.5 21.1851 12.8929 19.678 12.4496ZM21.6993 3.53513C21.9359 3.53513 22.4594 4.02638 22.4718 4.20938C22.5434 5.253 18.8256 8.952 16.3405 11.1577L15.9168 10.7891L15.6396 10.5472C17.4891 7.788 20.6519 3.60638 21.6993 3.53513ZM14.7246 11.6475L15.2954 10.9931L15.9445 11.5594L15.3749 12.2134L14.7246 11.6475ZM19.4571 20.244C17.5649 21.201 15.0546 21.75 12.5688 21.75H12.568C9.51552 21.75 6.95127 20.9501 5.34702 19.4977C1.66302 16.1644 1.26965 12.9067 1.58802 10.7606C2.01777 7.86787 4.08102 5.157 6.84515 3.85388C9.07002 2.80463 11.2994 2.25 13.2914 2.25C15.685 2.25 17.5938 3.07763 18.3981 4.464C18.5714 4.76213 18.6876 5.08088 18.7551 5.41463C17.0759 7.39575 15.3704 9.9345 15.0445 10.4243L14.0031 11.6183C13.4564 11.6126 12.9089 11.8515 12.7401 12.4286C12.1184 14.5493 10.7335 15.8644 10.7335 15.8644C10.7335 15.8644 14.2439 15.1706 14.9155 14.3824C15.2793 13.9556 15.4555 13.4456 15.4514 12.9806L16.5419 11.7304C16.6874 11.6025 16.9038 11.4101 17.1704 11.1694C17.1689 11.4034 17.2011 11.6171 17.2776 11.8076C17.6058 12.6221 18.5091 12.8876 19.4658 13.1689C20.9571 13.6076 22.4995 14.061 22.4995 16.5248C22.4999 17.931 21.4188 19.2518 19.4571 20.244Z" fill="black"/>
<path d="M20.2958 14.9275C19.1895 14.0414 17.3948 14.0414 16.2885 14.9275C15.1823 15.8137 15.1827 17.2507 16.2885 18.1372C17.3944 19.0237 19.1892 19.0233 20.2958 18.1372C21.4024 17.251 21.402 15.8137 20.2958 14.9275ZM19.7509 17.7003C18.9458 18.3457 17.6385 18.3457 16.8338 17.7003C16.029 17.0549 16.0287 16.009 16.8338 15.364C17.6389 14.719 18.9458 14.7187 19.7509 15.364C20.556 16.0094 20.556 17.0549 19.7509 17.7003Z" fill="black"/>
</svg>
